<svg xmlns="http://www.w3.org/2000/svg" width="600" height="200" viewBox="0 0 600 200">
  <g>
    <path d="M57.448,155.288,32.568,73.632H45.753L63.4,136.15h.851L81.69,73.632h13.4l17.225,62.305h.85l17.65-62.305H144l-24.88,81.656H106.782L88.92,92.558H87.644l-17.862,62.73Z" fill="#d3d3d3"/>
    <path d="M192.053,156.989q-11.8,0-20.334-5.237a34.513,34.513,0,0,1-13.131-14.672q-4.6-9.437-4.6-21.982a50.66,50.66,0,0,1,4.6-22.142,36.03,36.03,0,0,1,12.865-14.992,34.561,34.561,0,0,1,19.324-5.4,38.731,38.731,0,0,1,12.6,2.127A31.383,31.383,0,0,1,214.7,81.58a33.306,33.306,0,0,1,8.134,12.572q3.03,7.815,3.03,19.244v5.316H162.921V107.868h50.184a27.006,27.006,0,0,0-2.737-12.334,21.1,21.1,0,0,0-7.762-8.56,21.892,21.892,0,0,0-11.829-3.135,22.514,22.514,0,0,0-12.944,3.694,24.6,24.6,0,0,0-8.374,9.595,28.123,28.123,0,0,0-2.923,12.653v7.231q0,9.249,3.216,15.655a22.619,22.619,0,0,0,8.958,9.728,26.149,26.149,0,0,0,13.343,3.323,26.9,26.9,0,0,0,8.958-1.408,18.664,18.664,0,0,0,6.937-4.253,19.063,19.063,0,0,0,4.519-7.1l12.121,3.4a26.648,26.648,0,0,1-6.433,10.817,30.855,30.855,0,0,1-11.163,7.23A41.025,41.025,0,0,1,192.053,156.989Z" fill="#d3d3d3"/>
    <path d="M246.7,155.288V46.413h12.547V86.6h1.063q1.381-2.124,3.854-5.449A22.5,22.5,0,0,1,271.29,75.2q4.651-2.633,12.626-2.632A32.413,32.413,0,0,1,302.1,77.725a34.315,34.315,0,0,1,12.281,14.62q4.412,9.463,4.412,22.327,0,12.971-4.412,22.461a34.621,34.621,0,0,1-12.228,14.673,31.853,31.853,0,0,1-18.021,5.183q-7.869,0-12.6-2.632a22.869,22.869,0,0,1-7.283-6.007q-2.551-3.375-3.934-5.609h-1.489v12.547Zm12.334-40.829a45.174,45.174,0,0,0,2.712,16.295,24.445,24.445,0,0,0,7.921,11,22.687,22.687,0,0,0,25.916-.213,25.44,25.44,0,0,0,7.974-11.271,44.414,44.414,0,0,0,2.685-15.816,43.563,43.563,0,0,0-2.632-15.55,24.428,24.428,0,0,0-7.921-11q-5.291-4.067-13.263-4.067a21.03,21.03,0,0,0-12.866,3.854,23.477,23.477,0,0,0-7.868,10.739A44.355,44.355,0,0,0,259.036,114.459Z" fill="#d3d3d3"/>
    <path d="M395.767,91.919,384.5,95.109a21.822,21.822,0,0,0-3.11-5.5,15.61,15.61,0,0,0-5.555-4.438,20.071,20.071,0,0,0-8.984-1.755q-7.5,0-12.467,3.429t-4.97,8.692a8.939,8.939,0,0,0,3.4,7.39q3.4,2.71,10.633,4.518l12.12,2.977q10.951,2.659,16.32,8.108t5.37,14.008a20.822,20.822,0,0,1-4.014,12.546,26.99,26.99,0,0,1-11.19,8.718,40.773,40.773,0,0,1-16.693,3.19q-12.493,0-20.68-5.423t-10.366-15.842l11.908-2.976a16.5,16.5,0,0,0,6.459,9.887q4.758,3.3,12.467,3.3,8.77,0,13.954-3.747t5.183-9.011a9.585,9.585,0,0,0-2.976-7.15q-2.978-2.9-9.144-4.334l-13.61-3.189q-11.217-2.658-16.453-8.267a19.8,19.8,0,0,1-5.236-14.061,20.1,20.1,0,0,1,3.907-12.227A26.184,26.184,0,0,1,351.456,75.6a37.338,37.338,0,0,1,15.391-3.031q12.12,0,19.058,5.316A28.736,28.736,0,0,1,395.767,91.919Z" fill="#d3d3d3"/>
    <path d="M422.558,60.022a8.825,8.825,0,0,1-6.3-2.5,8.174,8.174,0,0,1,0-12.015,9.192,9.192,0,0,1,12.6,0,8.172,8.172,0,0,1,0,12.015A8.826,8.826,0,0,1,422.558,60.022Zm-6.379,95.266V73.632h12.546v81.656Z" fill="#d3d3d3"/>
    <path d="M487.2,73.632V84.264H444.886V73.632ZM457.22,54.068h12.545V131.9q0,5.315,1.569,7.947a7.7,7.7,0,0,0,4.04,3.509,15.54,15.54,0,0,0,5.237.877,19.758,19.758,0,0,0,3.4-.239q1.329-.239,2.126-.4l2.552,11.27a26.075,26.075,0,0,1-9.356,1.489,25.087,25.087,0,0,1-10.394-2.286,20.47,20.47,0,0,1-8.4-6.964,19.875,19.875,0,0,1-3.322-11.8Z" fill="#d3d3d3"/>
    <path d="M539.513,156.989q-11.8,0-20.334-5.237a34.513,34.513,0,0,1-13.131-14.672q-4.6-9.437-4.6-21.982a50.66,50.66,0,0,1,4.6-22.142,36.03,36.03,0,0,1,12.865-14.992,34.561,34.561,0,0,1,19.324-5.4,38.731,38.731,0,0,1,12.6,2.127A31.374,31.374,0,0,1,562.16,81.58a33.306,33.306,0,0,1,8.134,12.572q3.03,7.815,3.03,19.244v5.316H510.381V107.868h50.184a26.993,26.993,0,0,0-2.737-12.334,21.1,21.1,0,0,0-7.762-8.56,21.889,21.889,0,0,0-11.829-3.135,22.514,22.514,0,0,0-12.944,3.694,24.6,24.6,0,0,0-8.374,9.595A28.123,28.123,0,0,0,514,109.781v7.231q0,9.249,3.216,15.655a22.619,22.619,0,0,0,8.958,9.728,26.149,26.149,0,0,0,13.343,3.323,26.9,26.9,0,0,0,8.958-1.408,18.664,18.664,0,0,0,6.937-4.253,19.063,19.063,0,0,0,4.519-7.1l12.121,3.4a26.648,26.648,0,0,1-6.433,10.817,30.855,30.855,0,0,1-11.163,7.23A41.025,41.025,0,0,1,539.513,156.989Z" fill="#d3d3d3"/>
  </g>
</svg>
